<?xml version="1.0" standalone="no"?>
<!DOCTYPE svg PUBLIC "-//W3C//DTD SVG 20010904//EN"
 "http://www.w3.org/TR/2001/REC-SVG-20010904/DTD/svg10.dtd">
<svg version="1.0" xmlns="http://www.w3.org/2000/svg"
 width="100.000000pt" height="100.000000pt" viewBox="0 0 300.000000 300.000000"
 preserveAspectRatio="xMidYMid meet">
<metadata>
Created by potrace 1.13, written by Peter Selinger 2001-2015
</metadata>
<g transform="translate(0.000000,300.000000) scale(0.100000,-0.100000)"
fill="#F50" stroke="none">
<path d="M609 2641 l-29 -29 0 -867 0 -867 29 -29 29 -29 867 0 867 0 29 29
29 29 0 867 0 867 -29 29 -29 29 -867 0 -867 0 -29 -29z m1311 -352 c25 -11
57 -31 71 -45 l25 -24 56 19 c30 10 69 26 86 35 17 9 34 16 37 16 14 0 -31
-69 -74 -113 -46 -48 -46 -48 -16 -41 17 4 51 15 78 24 27 11 47 14 47 8 0 -6
-31 -42 -70 -79 l-70 -69 0 -66 c0 -79 -23 -185 -60 -277 -80 -194 -233 -356
-414 -437 -119 -53 -179 -64 -336 -65 -121 0 -158 4 -223 23 -67 19 -217 85
-217 96 0 2 31 3 68 3 89 0 161 17 249 60 79 38 109 63 76 63 -70 0 -166 62
-214 139 -37 57 -36 63 4 56 17 -3 46 -2 62 3 l30 9 -30 7 c-48 10 -125 76
-156 132 -31 55 -52 153 -30 139 17 -10 111 -34 111 -28 0 2 -13 15 -29 29
-17 14 -43 51 -58 82 -34 69 -39 173 -11 235 l17 37 42 -45 c119 -129 313
-227 495 -250 l51 -7 5 79 c7 120 64 205 168 252 62 28 168 28 230 0z"/>
</g>
</svg>
