<?xml version="1.0" standalone="no"?>
<!DOCTYPE svg PUBLIC "-//W3C//DTD SVG 20010904//EN"
 "http://www.w3.org/TR/2001/REC-SVG-20010904/DTD/svg10.dtd">
<svg version="1.0" xmlns="http://www.w3.org/2000/svg"
 width="300.000000pt" height="300.000000pt" viewBox="0 0 300.000000 300.000000"
 preserveAspectRatio="xMidYMid meet">
<metadata>
Created by potrace 1.13, written by Peter Selinger 2001-2015
</metadata>
<g transform="translate(0.000000,300.000000) scale(0.100000,-0.100000)"
fill="#F50" stroke="none">
<path d="M609 2641 l-29 -29 0 -867 0 -867 29 -29 29 -29 867 0 867 0 29 29
29 29 0 867 0 867 -29 29 -29 29 -867 0 -867 0 -29 -29z m1311 -352 c25 -11
57 -31 71 -45 l25 -24 56 19 c30 10 69 26 86 35 17 9 34 16 37 16 14 0 -31
-69 -74 -113 -46 -48 -46 -48 -16 -41 17 4 51 15 78 24 27 11 47 14 47 8 0 -6
-31 -42 -70 -79 l-70 -69 0 -66 c0 -79 -23 -185 -60 -277 -80 -194 -233 -356
-414 -437 -119 -53 -179 -64 -336 -65 -121 0 -158 4 -223 23 -67 19 -217 85
-217 96 0 2 31 3 68 3 89 0 161 17 249 60 79 38 109 63 76 63 -70 0 -166 62
-214 139 -37 57 -36 63 4 56 17 -3 46 -2 62 3 l30 9 -30 7 c-48 10 -125 76
-156 132 -31 55 -52 153 -30 139 17 -10 111 -34 111 -28 0 2 -13 15 -29 29
-17 14 -43 51 -58 82 -34 69 -39 173 -11 235 l17 37 42 -45 c119 -129 313
-227 495 -250 l51 -7 5 79 c7 120 64 205 168 252 62 28 168 28 230 0z"/>
<path d="M320 371 l0 -201 115 0 c135 0 168 12 192 67 19 47 10 96 -23 122
l-26 20 21 27 c30 38 27 87 -8 126 l-28 32 -122 4 -121 4 0 -201z m227 127
c18 -15 16 -58 -4 -80 -13 -14 -31 -18 -90 -18 l-73 0 0 59 0 58 77 -4 c43 -2
83 -9 90 -15z m15 -178 c23 -29 23 -55 -2 -80 -17 -17 -33 -20 -100 -20 l-80
0 0 66 0 67 82 -5 c69 -4 84 -8 100 -28z"/>
<path d="M1330 500 c0 -36 -2 -40 -25 -40 -20 0 -25 -5 -25 -25 0 -20 5 -25
25 -25 l25 0 0 -101 c0 -125 6 -139 65 -139 41 0 45 2 45 24 0 19 -6 25 -26
28 -26 3 -26 4 -28 96 l-1 92 28 0 c22 0 27 4 27 25 0 21 -5 25 -30 25 -30 0
-30 1 -24 40 6 40 6 40 -25 40 -30 0 -31 -2 -31 -40z"/>
<path d="M1780 500 c0 -36 -2 -40 -25 -40 -20 0 -25 -5 -25 -25 0 -20 5 -25
25 -25 l25 0 0 -108 c0 -71 4 -112 12 -120 7 -7 32 -12 56 -12 39 0 43 2 40
23 -2 12 -10 23 -18 23 -8 1 -21 2 -27 3 -10 1 -13 27 -13 96 l0 95 30 0 c25
0 30 4 30 25 0 21 -5 25 -30 25 -28 0 -30 2 -30 40 0 36 -2 40 -25 40 -22 0
-25 -4 -25 -40z"/>
<path d="M766 460 c-109 -33 -131 -203 -35 -273 39 -28 106 -32 149 -9 51 27
72 73 68 149 -4 70 -27 105 -85 129 -36 16 -55 16 -97 4z m78 -54 c87 -36 59
-196 -35 -196 -47 0 -72 30 -77 93 -4 52 -2 58 26 87 35 34 40 35 86 16z"/>
<path d="M1063 451 c-51 -24 -76 -67 -77 -136 -1 -96 64 -161 153 -152 80 9
126 64 125 152 -1 119 -98 184 -201 136z m121 -61 c11 -11 21 -37 23 -67 5
-42 1 -53 -22 -81 -71 -85 -177 12 -131 121 24 58 86 71 130 27z"/>
<path d="M1540 459 c-43 -18 -60 -40 -60 -80 0 -46 21 -63 101 -84 29 -8 59
-21 68 -30 25 -24 2 -49 -47 -53 -34 -3 -46 2 -66 22 -23 26 -66 36 -66 16 0
-6 7 -24 15 -40 19 -36 72 -55 133 -46 73 10 114 62 92 117 -13 30 -33 42
-111 63 -78 22 -89 59 -22 72 26 5 37 1 58 -20 30 -30 65 -35 65 -8 0 30 -29
61 -68 72 -44 12 -59 12 -92 -1z"/>
<path d="M2184 459 c-38 -11 -63 -37 -66 -70 -4 -35 38 -40 51 -6 17 43 99 48
121 7 15 -28 -10 -46 -76 -55 -103 -13 -145 -85 -85 -146 35 -34 78 -38 131
-11 34 16 36 16 51 -2 21 -25 69 -15 69 14 0 11 -7 20 -15 20 -17 0 -18 1 -15
100 2 95 -10 127 -55 145 -38 17 -65 18 -111 4z"/>
<path d="M2503 456 c-18 -8 -33 -11 -33 -6 0 6 -13 10 -30 10 l-30 0 0 -200 0
-200 30 0 30 0 0 65 0 66 32 -17 c79 -41 169 16 183 114 16 121 -83 212 -182
168z m94 -60 c25 -22 28 -31 28 -86 0 -53 -3 -65 -24 -81 -75 -61 -162 25
-129 126 21 64 77 82 125 41z"/>
<path d="M1930 315 l0 -145 30 0 30 0 -1 89 c-1 103 10 127 64 142 30 8 37 14
37 34 0 21 -5 25 -29 25 -17 0 -38 -10 -55 -26 l-26 -27 0 27 c0 21 -5 26 -25
26 l-25 0 0 -145z"/>
</g>
</svg>
