<?xml version="1.0" standalone="no"?>
<!DOCTYPE svg PUBLIC "-//W3C//DTD SVG 20010904//EN"
 "http://www.w3.org/TR/2001/REC-SVG-20010904/DTD/svg10.dtd">
<svg version="1.0" xmlns="http://www.w3.org/2000/svg"
 width="294.000000pt" height="318.000000pt" viewBox="0 0 294.000000 318.000000"
 preserveAspectRatio="xMidYMid meet">
<metadata>
Created by potrace 1.13, written by Peter Selinger 2001-2015
</metadata>
<g transform="translate(0.000000,318.000000) scale(0.100000,-0.100000)"
fill="#FE5400" stroke="none">
<path d="M1493 3140 c-56 -32 -84 -65 -102 -122 -7 -21 -15 -38 -17 -38 -10 0
-34 71 -34 100 0 16 -4 30 -8 30 -4 0 -24 -17 -44 -37 -44 -45 -77 -115 -78
-161 0 -56 -24 -50 -97 25 -125 127 -257 168 -400 125 -64 -20 -153 -79 -153
-103 0 -5 12 -11 27 -15 67 -15 98 -29 134 -61 37 -33 39 -39 39 -94 0 -56 -1
-59 -27 -65 -67 -14 -94 -27 -118 -55 -37 -45 -35 -118 5 -194 26 -50 30 -67
30 -138 l0 -80 -44 -41 c-76 -72 -92 -125 -57 -202 21 -47 62 -81 165 -139 50
-29 77 -52 94 -80 23 -39 23 -46 18 -198 -3 -87 -9 -165 -14 -173 -7 -13 -15
-9 -42 22 -36 41 -80 128 -80 159 -1 32 -55 -39 -81 -105 -31 -77 -31 -212 0
-292 27 -70 89 -139 157 -176 38 -20 63 -44 96 -92 55 -80 142 -143 225 -161
32 -7 78 -26 103 -41 137 -86 365 -90 529 -8 42 21 101 45 131 54 31 8 77 30
104 47 49 33 120 113 131 149 4 11 29 32 56 46 111 56 169 137 190 264 16 94
0 188 -44 261 -32 52 -57 73 -57 47 0 -25 -47 -114 -81 -152 -31 -36 -33 -37
-41 -17 -4 12 -10 88 -14 169 -5 141 -5 149 18 192 19 37 37 52 108 92 184
104 221 215 107 321 l-52 48 -4 80 c-3 73 -1 86 24 131 15 28 31 67 36 87 18
78 -31 153 -109 167 -53 9 -62 20 -62 74 0 37 6 56 25 78 28 34 91 66 149 76
l39 7 -34 35 c-75 78 -208 111 -322 81 -80 -21 -139 -58 -213 -135 -60 -62
-65 -65 -90 -53 -25 11 -26 15 -19 59 4 26 15 66 25 90 17 39 18 42 2 42 -22
0 -118 -45 -126 -59 -4 -6 -11 -11 -16 -11 -16 0 -32 82 -26 127 3 24 2 43 -2
43 -4 0 -30 -14 -59 -30z m-558 -161 c44 -22 145 -118 145 -137 0 -5 -10 -13
-22 -19 -20 -9 -28 -4 -66 38 -57 63 -129 99 -201 99 -31 0 -64 7 -74 14 -16
13 -15 15 20 24 56 16 145 7 198 -19z m1235 20 c70 -15 52 -31 -45 -40 -90 -9
-146 -38 -201 -103 -33 -40 -39 -43 -60 -34 -13 6 -24 16 -24 22 0 6 29 38 64
71 89 86 157 107 266 84z m-1280 -128 c13 -10 35 -37 47 -61 l23 -44 -27 -28
c-19 -20 -33 -26 -47 -22 -32 9 -43 30 -51 92 -4 31 -12 65 -17 76 -9 17 -7
18 18 12 16 -4 40 -15 54 -25z m1213 12 c-4 -9 -11 -46 -17 -82 -10 -58 -15
-68 -40 -80 -27 -12 -30 -11 -57 15 l-29 29 30 51 c18 32 41 57 62 67 43 21
59 21 51 0z m-493 -67 c47 -8 110 -23 140 -35 63 -24 162 -81 167 -96 1 -5
-22 -25 -52 -43 -77 -47 -112 -78 -162 -146 -45 -61 -50 -85 -10 -49 40 37
178 125 241 153 88 41 217 66 267 51 71 -21 83 -72 35 -151 l-21 -35 -5 30
c-5 23 -9 9 -19 -58 -11 -70 -11 -101 -1 -150 19 -98 79 -229 68 -149 l-5 32
24 -22 c17 -16 23 -32 23 -64 0 -56 -30 -91 -118 -140 -151 -83 -168 -123
-158 -364 4 -91 8 -176 9 -189 3 -31 -44 -49 -129 -50 l-61 -1 -43 111 c-49
129 -100 242 -107 236 -7 -8 46 -230 77 -323 17 -48 30 -90 30 -93 0 -3 -153
-6 -340 -6 -273 0 -339 3 -335 13 32 84 106 368 105 404 -1 22 -32 -42 -95
-196 l-61 -150 -58 3 c-78 3 -132 23 -129 47 2 11 6 98 9 194 10 245 -4 277
-156 364 -43 25 -88 57 -99 72 -25 32 -28 90 -5 122 20 29 32 28 26 -3 -14
-75 40 31 64 125 16 64 15 144 -3 231 l-7 34 -6 -30 -6 -30 -21 40 c-35 68
-37 92 -10 119 75 75 299 12 512 -143 38 -28 71 -49 73 -47 2 3 -14 29 -36 59
-47 63 -119 127 -180 159 -23 13 -41 27 -39 33 6 17 118 81 175 100 134 44
287 55 432 31z m-926 -1362 c4 -14 30 -50 59 -79 57 -56 133 -92 218 -102 72
-9 75 -14 38 -67 -29 -40 -33 -55 -33 -102 l1 -56 -50 6 c-117 16 -222 98
-251 197 -23 76 -20 229 4 229 4 0 11 -12 14 -26z m1584 -109 c-5 -106 -24
-151 -89 -209 -51 -47 -113 -75 -180 -83 l-50 -6 6 36 c9 44 -8 97 -43 138
-30 36 -23 44 47 52 114 14 229 85 273 171 21 40 21 41 30 16 5 -14 8 -65 6
-115z m-401 -179 c33 -39 27 -84 -24 -185 -78 -154 -188 -229 -353 -238 -189
-12 -313 57 -408 227 -41 74 -58 143 -43 176 23 51 45 54 439 51 l364 -2 25
-29z"/>
<path d="M800 2331 c0 -6 9 -11 20 -11 21 0 28 -24 10 -35 -18 -11 -8 -115 11
-115 5 0 9 9 9 19 0 11 5 23 10 26 6 4 10 -5 10 -20 0 -34 26 -94 53 -123 55
-60 163 -86 231 -58 50 21 59 11 52 -67 -2 -33 0 -55 5 -51 12 7 45 72 53 106
4 19 17 32 40 42 33 14 66 50 66 73 0 8 -11 10 -34 6 -56 -9 -83 4 -161 77
-103 95 -181 132 -291 138 -58 3 -84 1 -84 -7z m226 -112 c69 -48 144 -118
144 -135 0 -13 -52 -34 -84 -34 -39 1 -104 38 -120 69 -17 31 -22 141 -8 141
5 0 35 -18 68 -41z"/>
<path d="M1932 2320 c-73 -26 -116 -54 -194 -127 -71 -66 -98 -79 -154 -70
-24 4 -34 2 -34 -7 0 -24 41 -66 73 -74 26 -7 33 -14 38 -43 6 -35 33 -94 47
-103 4 -2 7 24 7 59 0 35 3 66 7 70 3 4 21 -1 39 -10 24 -13 47 -16 85 -12 98
10 172 67 195 150 18 68 22 75 27 45 2 -16 7 -28 12 -28 22 0 25 87 5 133 -5
13 -2 17 14 17 12 0 21 5 21 10 0 17 -131 11 -188 -10z m38 -115 c0 -31 -7
-69 -16 -86 -16 -31 -81 -68 -120 -69 -29 0 -84 20 -84 31 0 26 180 179 212
179 4 0 8 -25 8 -55z"/>
<path d="M1128 1123 c-59 -15 12 -144 89 -159 40 -8 67 7 103 58 33 45 39 92
14 102 -17 7 -180 6 -206 -1z"/>
<path d="M1588 1119 c-26 -15 -22 -45 12 -95 34 -49 56 -64 94 -64 50 0 136
103 120 143 -3 8 -15 18 -27 21 -36 10 -181 6 -199 -5z"/>
<path d="M357 530 c-91 -23 -172 -91 -198 -166 -18 -52 -15 -150 5 -197 56
-129 210 -193 366 -153 110 29 110 28 110 161 l0 115 -100 0 -100 0 0 -50 0
-50 35 0 c33 0 35 -2 35 -34 0 -39 -12 -46 -72 -46 -92 0 -148 61 -148 162 0
59 23 106 64 133 38 25 124 22 181 -6 l47 -24 29 35 c16 19 29 39 29 46 0 51
-184 99 -283 74z"/>
<path d="M740 270 l0 -260 70 0 70 0 0 90 c0 72 3 92 15 96 22 9 40 -10 93
-98 28 -46 55 -81 67 -84 11 -3 49 -4 84 -2 l63 3 -69 105 -70 106 38 36 c60
57 65 146 13 208 -38 44 -104 60 -251 60 l-123 0 0 -260z m255 140 c8 -7 15
-27 15 -45 0 -44 -38 -75 -91 -75 l-39 0 0 71 0 72 50 -5 c27 -3 56 -11 65
-18z"/>
<path d="M1243 348 c3 -206 10 -232 70 -285 38 -34 119 -63 172 -63 50 0 131
28 166 57 60 51 69 86 69 291 l0 182 -70 0 -70 0 0 -180 c0 -179 0 -181 -25
-205 -18 -19 -35 -25 -65 -25 -95 0 -110 33 -110 250 l0 160 -70 0 -69 0 2
-182z"/>
<path d="M1830 270 l0 -260 60 0 60 0 0 145 c0 80 4 145 8 145 5 0 63 -65 131
-145 l122 -145 54 0 55 0 0 260 0 260 -65 0 -64 0 -3 -150 -3 -149 -102 122
c-155 185 -146 177 -203 177 l-50 0 0 -260z"/>
<path d="M2392 478 l3 -53 73 -3 72 -3 0 -204 0 -205 70 0 70 0 0 205 0 204
78 3 77 3 3 53 3 52 -226 0 -226 0 3 -52z"/>
</g>
</svg>
