<?xml version="1.0" standalone="no"?>
<!DOCTYPE svg PUBLIC "-//W3C//DTD SVG 20010904//EN"
 "http://www.w3.org/TR/2001/REC-SVG-20010904/DTD/svg10.dtd">
<svg version="1.0" xmlns="http://www.w3.org/2000/svg"
 width="700.000000pt" height="466.000000pt" viewBox="0 0 700.000000 466.000000"
 preserveAspectRatio="xMidYMid meet">
<metadata>
Created by potrace 1.13, written by Peter Selinger 2001-2015
</metadata>
<g transform="translate(0.000000,466.000000) scale(0.100000,-0.100000)"
fill="#000000" stroke="none">
<path d="M512 4429 c-51 -26 -95 -76 -111 -128 -8 -28 -11 -377 -11 -1277 0
-1186 1 -1241 19 -1279 21 -46 73 -98 116 -117 23 -10 186 -14 745 -18 l715
-5 0 -309 0 -310 -105 -26 c-154 -39 -200 -69 -200 -131 l0 -27 108 -5 c59 -2
143 -11 187 -18 110 -18 808 -18 920 0 44 7 128 15 188 18 l107 5 0 27 c0 62
-46 92 -200 131 l-105 26 0 57 c1 31 2 172 3 312 l2 255 510 0 510 0 0 -414
c0 -268 4 -425 11 -443 15 -42 68 -92 109 -103 21 -6 287 -10 678 -10 l642 0
0 -129 c0 -104 3 -133 16 -145 13 -14 57 -16 323 -16 286 0 309 1 324 18 15
17 17 69 17 539 0 471 -2 522 -16 534 -12 10 -60 15 -163 19 l-146 5 -5 755
c-6 846 0 783 -79 832 l-36 23 -552 3 -553 3 -2 613 -3 612 -28 42 c-15 23
-46 54 -69 69 l-42 28 -1890 3 -1891 2 -43 -21z m3777 -87 c19 -9 44 -30 55
-45 21 -28 21 -40 24 -623 l2 -594 -147 0 c-181 0 -215 -8 -269 -66 l-41 -44
-1617 0 -1616 0 0 -190 0 -190 1615 0 1615 0 0 -390 0 -390 -1647 0 c-1549 0
-1650 1 -1682 18 -19 9 -44 30 -55 45 -21 28 -21 31 -21 1212 0 1181 0 1184
21 1212 11 15 36 36 55 45 32 17 141 18 1854 18 1713 0 1822 -1 1854 -18z
m1286 -1387 l25 -24 0 -736 0 -735 -114 0 c-145 0 -147 -2 -139 -131 l6 -89
-607 0 -606 0 0 -130 0 -130 605 0 605 0 0 -65 0 -65 -645 0 -644 0 -21 22
c-20 22 -20 29 -20 1040 l0 1019 25 24 24 25 741 0 741 0 24 -25z m395 -1594
c14 -27 14 -855 0 -882 -10 -18 -24 -19 -278 -19 -195 0 -271 3 -280 12 -17
17 -17 879 0 896 9 9 85 12 280 12 254 0 268 -1 278 -19z"/>
<path d="M680 3960 l0 -190 480 0 480 0 0 190 0 190 -480 0 -480 0 0 -190z"/>
<path d="M4147 2863 c-4 -3 -7 -60 -7 -125 l0 -118 320 0 320 0 0 125 0 125
-313 0 c-173 0 -317 -3 -320 -7z"/>
<path d="M5450 1280 l0 -40 235 0 235 0 0 40 0 40 -235 0 -235 0 0 -40z"/>
<path d="M5450 560 l0 -40 235 0 235 0 0 40 0 40 -235 0 -235 0 0 -40z"/>
</g>
</svg>
